<svg width="279" height="59" viewBox="0 0 279 59" fill="none" xmlns="http://www.w3.org/2000/svg">
<path fill-rule="evenodd" clip-rule="evenodd" d="M23.3847 5.58789L32.8357 15.1879H13.9337L23.3847 5.58789ZM9.25493 22.1695H21.5068L10.4801 34.3883L17.6747 42.2413L35.2212 22.7266C36.9075 20.885 39.6159 20.885 41.3022 22.7266L54.888 37.5629C55.7102 38.4608 56.175 39.6851 56.1792 40.9642C56.1834 42.2434 55.7267 43.4714 54.9104 44.3759L46.7607 53.5881H46.4673L46.4674 53.5882H27.5654L37.0164 43.9882L40.2103 47.2324L45.6991 41.0066L38.2617 32.8846L20.7153 52.3993C20.1868 52.9764 19.558 53.3726 18.8918 53.5881H16.4577C15.7914 53.3726 15.1626 52.9764 14.6342 52.3993L1.29117 37.832C0.469003 36.9341 0.0042418 35.7098 2.88964e-05 34.4307C-0.00418439 33.1516 0.4525 31.9235 1.26873 31.0191L9.25493 22.1695Z" fill="white"/>
<path d="M81.1731 11.8583C81.0572 12.0612 80.9316 12.2109 80.7964 12.3075C80.6708 12.3945 80.5114 12.4379 80.3182 12.4379C80.1153 12.4379 79.8932 12.3655 79.6517 12.2206C79.4198 12.066 79.1397 11.897 78.8112 11.7134C78.4828 11.5299 78.0964 11.3657 77.652 11.2208C77.2173 11.0662 76.7005 10.9889 76.1016 10.9889C75.5607 10.9889 75.0873 11.0565 74.6816 11.1918C74.2759 11.3174 73.9329 11.4961 73.6528 11.7279C73.3823 11.9598 73.1795 12.2399 73.0442 12.5683C72.909 12.8871 72.8414 13.2397 72.8414 13.6261C72.8414 14.1188 72.9766 14.5293 73.2471 14.8578C73.5272 15.1862 73.8943 15.4663 74.3483 15.6982C74.8023 15.93 75.3192 16.1377 75.8988 16.3212C76.4784 16.5048 77.0724 16.7028 77.681 16.9153C78.2896 17.1182 78.8837 17.3597 79.4633 17.6398C80.0429 17.9103 80.5597 18.2581 81.0137 18.6831C81.4677 19.0985 81.83 19.6105 82.1005 20.2191C82.3806 20.8276 82.5207 21.5666 82.5207 22.436C82.5207 23.3827 82.3565 24.2714 82.028 25.1022C81.7092 25.9233 81.2359 26.643 80.608 27.2612C79.9898 27.8698 79.2315 28.3528 78.3331 28.7102C77.4347 29.058 76.4059 29.2318 75.2467 29.2318C74.5802 29.2318 73.9233 29.1642 73.2761 29.029C72.6288 28.9034 72.0058 28.7199 71.4069 28.4784C70.8176 28.2369 70.2621 27.9471 69.7405 27.609C69.2189 27.2709 68.7552 26.8941 68.3495 26.4787L69.4942 24.6095C69.5908 24.4743 69.7164 24.3632 69.8709 24.2763C70.0255 24.1797 70.1897 24.1314 70.3636 24.1314C70.6051 24.1314 70.8659 24.2328 71.146 24.4356C71.4262 24.6288 71.7594 24.8462 72.1458 25.0877C72.5322 25.3292 72.9814 25.5514 73.4934 25.7542C74.0151 25.9474 74.6381 26.044 75.3626 26.044C76.4735 26.044 77.3333 25.7832 77.9418 25.2616C78.5504 24.7303 78.8547 23.972 78.8547 22.9866C78.8547 22.436 78.7146 21.9868 78.4345 21.6391C78.164 21.2913 77.8018 21.0015 77.3478 20.7697C76.8937 20.5282 76.3769 20.3253 75.7973 20.1611C75.2177 19.9969 74.6285 19.8182 74.0295 19.625C73.4306 19.4318 72.8414 19.1999 72.2618 18.9294C71.6822 18.659 71.1654 18.3064 70.7113 17.8717C70.2573 17.437 69.8902 16.896 69.6101 16.2488C69.3396 15.5919 69.2044 14.7853 69.2044 13.829C69.2044 13.0658 69.3541 12.322 69.6536 11.5975C69.9627 10.873 70.407 10.2306 70.9866 9.67034C71.5662 9.11006 72.2811 8.66087 73.1312 8.32277C73.9812 7.98467 74.9569 7.81562 76.0581 7.81562C77.2946 7.81562 78.4345 8.00882 79.4778 8.39522C80.5211 8.78162 81.4098 9.32258 82.1439 10.0181L81.1731 11.8583ZM97.9102 14.1333V29H95.7222C95.2489 29 94.9494 28.7826 94.8238 28.3479L94.5775 27.1598C93.9689 27.778 93.2975 28.2803 92.5634 28.6667C91.8292 29.0435 90.9647 29.2318 89.9697 29.2318C89.1582 29.2318 88.4386 29.0966 87.8107 28.8261C87.1924 28.546 86.6708 28.1547 86.2457 27.6524C85.8207 27.1501 85.4971 26.556 85.2749 25.8702C85.0624 25.1746 84.9561 24.4115 84.9561 23.5807V14.1333H88.5352V23.5807C88.5352 24.4888 88.7429 25.194 89.1582 25.6963C89.5833 26.1889 90.216 26.4353 91.0564 26.4353C91.6747 26.4353 92.2543 26.3 92.7952 26.0295C93.3362 25.7494 93.8482 25.3678 94.3312 24.8848V14.1333H97.9102ZM105.038 25.1457C105.444 25.6383 105.883 25.9861 106.357 26.1889C106.84 26.3918 107.361 26.4932 107.921 26.4932C108.462 26.4932 108.95 26.3918 109.385 26.1889C109.82 25.9861 110.187 25.677 110.486 25.2616C110.795 24.8462 111.032 24.3246 111.196 23.6967C111.36 23.0591 111.442 22.3104 111.442 21.4507C111.442 20.5813 111.37 19.8471 111.225 19.2482C111.09 18.6396 110.892 18.147 110.631 17.7702C110.37 17.3935 110.051 17.1182 109.675 16.9443C109.308 16.7704 108.887 16.6835 108.414 16.6835C107.67 16.6835 107.038 16.8429 106.516 17.1617C105.994 17.4708 105.502 17.9103 105.038 18.4803V25.1457ZM104.85 16.1619C105.458 15.476 106.149 14.9205 106.922 14.4955C107.694 14.0705 108.602 13.8579 109.646 13.8579C110.457 13.8579 111.196 14.027 111.863 14.3651C112.539 14.7032 113.119 15.1959 113.602 15.8431C114.094 16.4806 114.471 17.2728 114.732 18.2194C115.002 19.1565 115.137 20.2335 115.137 21.4507C115.137 22.5616 114.988 23.5904 114.688 24.5371C114.389 25.4838 113.959 26.3049 113.399 27.0004C112.848 27.6959 112.177 28.2417 111.385 28.6378C110.602 29.0242 109.723 29.2174 108.747 29.2174C107.917 29.2174 107.207 29.0918 106.617 28.8406C106.028 28.5798 105.502 28.2224 105.038 27.7684V33.8542H101.459V14.1333H103.647C104.111 14.1333 104.415 14.3506 104.56 14.7853L104.85 16.1619ZM127.508 19.8568C127.508 19.3931 127.44 18.9584 127.305 18.5527C127.179 18.1373 126.986 17.7751 126.725 17.466C126.465 17.1568 126.131 16.9153 125.726 16.7415C125.329 16.5579 124.866 16.4661 124.335 16.4661C123.301 16.4661 122.485 16.7608 121.886 17.35C121.296 17.9393 120.92 18.7749 120.755 19.8568H127.508ZM120.683 22.0158C120.741 22.779 120.876 23.4407 121.089 24.0009C121.301 24.5516 121.581 25.0104 121.929 25.3775C122.277 25.7349 122.687 26.0054 123.161 26.1889C123.644 26.3628 124.175 26.4498 124.755 26.4498C125.334 26.4498 125.832 26.3821 126.247 26.2469C126.672 26.1117 127.039 25.9619 127.348 25.7977C127.667 25.6335 127.943 25.4838 128.174 25.3485C128.416 25.2133 128.648 25.1457 128.87 25.1457C129.169 25.1457 129.392 25.2567 129.536 25.4789L130.565 26.783C130.169 27.2467 129.725 27.6379 129.232 27.9567C128.739 28.2658 128.223 28.517 127.682 28.7102C127.15 28.8937 126.605 29.0242 126.044 29.1014C125.494 29.1787 124.958 29.2174 124.436 29.2174C123.402 29.2174 122.441 29.0483 121.552 28.7102C120.664 28.3624 119.891 27.8553 119.234 27.1888C118.577 26.5125 118.06 25.6818 117.684 24.6965C117.307 23.7015 117.118 22.5519 117.118 21.2478C117.118 20.2335 117.283 19.282 117.611 18.3933C117.94 17.4949 118.408 16.7173 119.017 16.0604C119.635 15.3939 120.384 14.8674 121.263 14.481C122.151 14.0946 123.151 13.9014 124.262 13.9014C125.199 13.9014 126.064 14.0511 126.856 14.3506C127.648 14.6501 128.329 15.0896 128.899 15.6692C129.469 16.2391 129.913 16.9443 130.232 17.7847C130.56 18.6155 130.725 19.567 130.725 20.6393C130.725 21.1802 130.667 21.5473 130.551 21.7405C130.435 21.924 130.213 22.0158 129.884 22.0158H120.683ZM136.787 16.7125C137.25 15.8238 137.801 15.1282 138.438 14.6259C139.076 14.1139 139.83 13.8579 140.699 13.8579C141.385 13.8579 141.935 14.0077 142.351 14.3071L142.119 16.9878C142.071 17.1617 141.998 17.2872 141.902 17.3645C141.815 17.4321 141.694 17.466 141.539 17.466C141.394 17.466 141.177 17.4418 140.887 17.3935C140.607 17.3452 140.332 17.3211 140.061 17.3211C139.665 17.3211 139.313 17.379 139.004 17.4949C138.694 17.6109 138.414 17.7799 138.163 18.0021C137.922 18.2146 137.704 18.4754 137.511 18.7845C137.328 19.0937 137.154 19.4463 136.989 19.8423V29H133.41V14.1333H135.512C135.879 14.1333 136.135 14.2009 136.279 14.3361C136.424 14.4617 136.521 14.6935 136.569 15.0316L136.787 16.7125ZM155.887 11.8583C155.771 12.0612 155.646 12.2109 155.51 12.3075C155.385 12.3945 155.225 12.4379 155.032 12.4379C154.829 12.4379 154.607 12.3655 154.366 12.2206C154.134 12.066 153.854 11.897 153.525 11.7134C153.197 11.5299 152.81 11.3657 152.366 11.2208C151.931 11.0662 151.415 10.9889 150.816 10.9889C150.275 10.9889 149.801 11.0565 149.396 11.1918C148.99 11.3174 148.647 11.4961 148.367 11.7279C148.096 11.9598 147.894 12.2399 147.758 12.5683C147.623 12.8871 147.555 13.2397 147.555 13.6261C147.555 14.1188 147.691 14.5293 147.961 14.8578C148.241 15.1862 148.608 15.4663 149.062 15.6982C149.516 15.93 150.033 16.1377 150.613 16.3212C151.192 16.5048 151.787 16.7028 152.395 16.9153C153.004 17.1182 153.598 17.3597 154.177 17.6398C154.757 17.9103 155.274 18.2581 155.728 18.6831C156.182 19.0985 156.544 19.6105 156.815 20.2191C157.095 20.8276 157.235 21.5666 157.235 22.436C157.235 23.3827 157.071 24.2714 156.742 25.1022C156.423 25.9233 155.95 26.643 155.322 27.2612C154.704 27.8698 153.946 28.3528 153.047 28.7102C152.149 29.058 151.12 29.2318 149.961 29.2318C149.294 29.2318 148.637 29.1642 147.99 29.029C147.343 28.9034 146.72 28.7199 146.121 28.4784C145.532 28.2369 144.976 27.9471 144.455 27.609C143.933 27.2709 143.469 26.8941 143.064 26.4787L144.208 24.6095C144.305 24.4743 144.43 24.3632 144.585 24.2763C144.74 24.1797 144.904 24.1314 145.078 24.1314C145.319 24.1314 145.58 24.2328 145.86 24.4356C146.14 24.6288 146.474 24.8462 146.86 25.0877C147.246 25.3292 147.695 25.5514 148.207 25.7542C148.729 25.9474 149.352 26.044 150.077 26.044C151.188 26.044 152.047 25.7832 152.656 25.2616C153.264 24.7303 153.569 23.972 153.569 22.9866C153.569 22.436 153.429 21.9868 153.149 21.6391C152.878 21.2913 152.516 21.0015 152.062 20.7697C151.608 20.5282 151.091 20.3253 150.511 20.1611C149.932 19.9969 149.343 19.8182 148.744 19.625C148.145 19.4318 147.555 19.1999 146.976 18.9294C146.396 18.659 145.879 18.3064 145.425 17.8717C144.971 17.437 144.604 16.896 144.324 16.2488C144.054 15.5919 143.918 14.7853 143.918 13.829C143.918 13.0658 144.068 12.322 144.368 11.5975C144.677 10.873 145.121 10.2306 145.701 9.67034C146.28 9.11006 146.995 8.66087 147.845 8.32277C148.695 7.98467 149.671 7.81562 150.772 7.81562C152.009 7.81562 153.149 8.00882 154.192 8.39522C155.235 8.78162 156.124 9.32258 156.858 10.0181L155.887 11.8583ZM167.725 22.6534C166.692 22.7017 165.822 22.7934 165.117 22.9287C164.412 23.0543 163.847 23.2185 163.422 23.4213C162.997 23.6242 162.692 23.8609 162.509 24.1314C162.325 24.4018 162.234 24.6965 162.234 25.0152C162.234 25.6431 162.417 26.0923 162.784 26.3628C163.161 26.6333 163.649 26.7685 164.248 26.7685C164.982 26.7685 165.615 26.6381 166.146 26.3773C166.687 26.1068 167.213 25.7011 167.725 25.1601V22.6534ZM159.524 16.2053C161.234 14.6404 163.291 13.8579 165.697 13.8579C166.566 13.8579 167.344 14.0028 168.03 14.2926C168.715 14.5728 169.295 14.9688 169.768 15.4808C170.242 15.9831 170.599 16.5869 170.841 17.2921C171.092 17.9973 171.217 18.7701 171.217 19.6105V29H169.594C169.256 29 168.996 28.9517 168.812 28.8551C168.628 28.7488 168.484 28.5411 168.377 28.232L168.059 27.1598C167.682 27.4979 167.315 27.7973 166.957 28.0581C166.6 28.3093 166.228 28.5218 165.842 28.6957C165.455 28.8696 165.04 29 164.595 29.0869C164.161 29.1835 163.678 29.2318 163.146 29.2318C162.519 29.2318 161.939 29.1497 161.408 28.9855C160.876 28.8116 160.417 28.5556 160.031 28.2175C159.645 27.8794 159.345 27.4592 159.133 26.9569C158.92 26.4546 158.814 25.8702 158.814 25.2036C158.814 24.8269 158.877 24.455 159.002 24.0879C159.128 23.7111 159.331 23.3537 159.611 23.0156C159.901 22.6775 160.273 22.3587 160.727 22.0593C161.181 21.7598 161.736 21.499 162.393 21.2768C163.059 21.0546 163.832 20.8759 164.711 20.7407C165.59 20.5958 166.595 20.5089 167.725 20.4799V19.6105C167.725 18.6155 167.513 17.8813 167.088 17.408C166.663 16.925 166.049 16.6835 165.247 16.6835C164.668 16.6835 164.185 16.7511 163.798 16.8864C163.422 17.0216 163.088 17.1762 162.799 17.35C162.509 17.5143 162.243 17.664 162.002 17.7992C161.77 17.9345 161.509 18.0021 161.219 18.0021C160.968 18.0021 160.756 17.9393 160.582 17.8137C160.408 17.6785 160.268 17.5239 160.161 17.35L159.524 16.2053ZM178.167 25.1457C178.573 25.6383 179.012 25.9861 179.486 26.1889C179.969 26.3918 180.49 26.4932 181.051 26.4932C181.592 26.4932 182.079 26.3918 182.514 26.1889C182.949 25.9861 183.316 25.677 183.615 25.2616C183.924 24.8462 184.161 24.3246 184.325 23.6967C184.49 23.0591 184.572 22.3104 184.572 21.4507C184.572 20.5813 184.499 19.8471 184.354 19.2482C184.219 18.6396 184.021 18.147 183.76 17.7702C183.499 17.3935 183.181 17.1182 182.804 16.9443C182.437 16.7704 182.017 16.6835 181.543 16.6835C180.799 16.6835 180.167 16.8429 179.645 17.1617C179.123 17.4708 178.631 17.9103 178.167 18.4803V25.1457ZM177.979 16.1619C178.587 15.476 179.278 14.9205 180.051 14.4955C180.824 14.0705 181.732 13.8579 182.775 13.8579C183.586 13.8579 184.325 14.027 184.992 14.3651C185.668 14.7032 186.248 15.1959 186.731 15.8431C187.223 16.4806 187.6 17.2728 187.861 18.2194C188.131 19.1565 188.267 20.2335 188.267 21.4507C188.267 22.5616 188.117 23.5904 187.817 24.5371C187.518 25.4838 187.088 26.3049 186.528 27.0004C185.977 27.6959 185.306 28.2417 184.514 28.6378C183.731 29.0242 182.852 29.2174 181.877 29.2174C181.046 29.2174 180.336 29.0918 179.747 28.8406C179.157 28.5798 178.631 28.2224 178.167 27.7684V33.8542H174.588V14.1333H176.776C177.24 14.1333 177.544 14.3506 177.689 14.7853L177.979 16.1619ZM194.769 14.1333V29H191.175V14.1333H194.769ZM195.261 9.80075C195.261 10.1099 195.198 10.3997 195.073 10.6701C194.947 10.9406 194.778 11.1773 194.566 11.3802C194.363 11.583 194.121 11.7472 193.841 11.8728C193.561 11.9887 193.262 12.0467 192.943 12.0467C192.634 12.0467 192.339 11.9887 192.059 11.8728C191.788 11.7472 191.552 11.583 191.349 11.3802C191.146 11.1773 190.982 10.9406 190.856 10.6701C190.74 10.3997 190.682 10.1099 190.682 9.80075C190.682 9.48197 190.74 9.18251 190.856 8.90237C190.982 8.62223 191.146 8.38073 191.349 8.17787C191.552 7.97501 191.788 7.81562 192.059 7.6997C192.339 7.57412 192.634 7.51133 192.943 7.51133C193.262 7.51133 193.561 7.57412 193.841 7.6997C194.121 7.81562 194.363 7.97501 194.566 8.17787C194.778 8.38073 194.947 8.62223 195.073 8.90237C195.198 9.18251 195.261 9.48197 195.261 9.80075ZM207.995 19.8568C207.995 19.3931 207.928 18.9584 207.792 18.5527C207.667 18.1373 207.474 17.7751 207.213 17.466C206.952 17.1568 206.619 16.9153 206.213 16.7415C205.817 16.5579 205.353 16.4661 204.822 16.4661C203.788 16.4661 202.972 16.7608 202.373 17.35C201.784 17.9393 201.407 18.7749 201.243 19.8568H207.995ZM201.17 22.0158C201.228 22.779 201.364 23.4407 201.576 24.0009C201.789 24.5516 202.069 25.0104 202.417 25.3775C202.764 25.7349 203.175 26.0054 203.648 26.1889C204.131 26.3628 204.663 26.4498 205.242 26.4498C205.822 26.4498 206.319 26.3821 206.735 26.2469C207.16 26.1117 207.527 25.9619 207.836 25.7977C208.155 25.6335 208.43 25.4838 208.662 25.3485C208.903 25.2133 209.135 25.1457 209.357 25.1457C209.657 25.1457 209.879 25.2567 210.024 25.4789L211.053 26.783C210.657 27.2467 210.212 27.6379 209.72 27.9567C209.227 28.2658 208.71 28.517 208.169 28.7102C207.638 28.8937 207.092 29.0242 206.532 29.1014C205.981 29.1787 205.445 29.2174 204.923 29.2174C203.89 29.2174 202.929 29.0483 202.04 28.7102C201.151 28.3624 200.378 27.8553 199.721 27.1888C199.065 26.5125 198.548 25.6818 198.171 24.6965C197.794 23.7015 197.606 22.5519 197.606 21.2478C197.606 20.2335 197.77 19.282 198.099 18.3933C198.427 17.4949 198.896 16.7173 199.504 16.0604C200.122 15.3939 200.871 14.8674 201.75 14.481C202.639 14.0946 203.639 13.9014 204.749 13.9014C205.687 13.9014 206.551 14.0511 207.343 14.3506C208.135 14.6501 208.816 15.0896 209.386 15.6692C209.956 16.2391 210.401 16.9443 210.719 17.7847C211.048 18.6155 211.212 19.567 211.212 20.6393C211.212 21.1802 211.154 21.5473 211.038 21.7405C210.922 21.924 210.7 22.0158 210.372 22.0158H201.17ZM217.245 15.959C217.545 15.6595 217.858 15.3842 218.187 15.1331C218.525 14.8722 218.878 14.6549 219.245 14.481C219.621 14.2975 220.022 14.1574 220.447 14.0608C220.872 13.9545 221.336 13.9014 221.838 13.9014C222.65 13.9014 223.37 14.0415 223.997 14.3216C224.625 14.5921 225.147 14.9785 225.562 15.4808C225.987 15.9735 226.306 16.5676 226.519 17.2631C226.741 17.949 226.852 18.7073 226.852 19.538V29H223.273V19.538C223.273 18.63 223.065 17.9296 222.65 17.437C222.234 16.9347 221.602 16.6835 220.752 16.6835C220.133 16.6835 219.554 16.8236 219.013 17.1037C218.472 17.3838 217.96 17.7654 217.477 18.2484V29H213.898V14.1333H216.086C216.55 14.1333 216.854 14.3506 216.999 14.7853L217.245 15.959ZM239.326 17.0313C239.23 17.1858 239.128 17.2969 239.022 17.3645C238.916 17.4225 238.781 17.4515 238.616 17.4515C238.443 17.4515 238.254 17.4032 238.051 17.3066C237.858 17.21 237.631 17.1037 237.37 16.9878C237.11 16.8622 236.81 16.7511 236.472 16.6545C236.144 16.5579 235.752 16.5096 235.298 16.5096C234.593 16.5096 234.038 16.6593 233.632 16.9588C233.236 17.2583 233.038 17.6495 233.038 18.1325C233.038 18.4513 233.139 18.7218 233.342 18.9439C233.555 19.1565 233.83 19.3448 234.168 19.509C234.516 19.6733 234.907 19.823 235.342 19.9582C235.776 20.0838 236.216 20.2239 236.66 20.3784C237.114 20.533 237.559 20.7117 237.993 20.9146C238.428 21.1078 238.815 21.3589 239.153 21.6681C239.5 21.9675 239.776 22.3298 239.979 22.7548C240.191 23.1798 240.297 23.6918 240.297 24.2907C240.297 25.0056 240.167 25.6673 239.906 26.2759C239.655 26.8748 239.278 27.3964 238.776 27.8408C238.274 28.2755 237.65 28.6184 236.907 28.8696C236.172 29.1111 235.322 29.2318 234.356 29.2318C233.844 29.2318 233.342 29.1835 232.849 29.0869C232.366 29 231.898 28.8744 231.444 28.7102C231 28.546 230.584 28.3528 230.198 28.1306C229.821 27.9084 229.488 27.6669 229.198 27.4061L230.024 26.044C230.13 25.8798 230.256 25.7542 230.401 25.6673C230.546 25.5804 230.729 25.5369 230.951 25.5369C231.173 25.5369 231.381 25.5997 231.574 25.7253C231.777 25.8508 232.009 25.9861 232.27 26.131C232.531 26.2759 232.835 26.4111 233.183 26.5367C233.54 26.6623 233.989 26.7251 234.53 26.7251C234.955 26.7251 235.318 26.6768 235.617 26.5802C235.926 26.4739 236.177 26.3387 236.371 26.1744C236.573 26.0102 236.718 25.8219 236.805 25.6093C236.902 25.3872 236.95 25.1601 236.95 24.9283C236.95 24.5805 236.844 24.2956 236.631 24.0734C236.428 23.8512 236.153 23.658 235.805 23.4938C235.467 23.3296 235.076 23.1847 234.632 23.0591C234.197 22.9239 233.748 22.779 233.284 22.6244C232.83 22.4698 232.381 22.2911 231.937 22.0883C231.502 21.8757 231.111 21.6101 230.763 21.2913C230.425 20.9725 230.149 20.5813 229.937 20.1176C229.734 19.6539 229.633 19.0937 229.633 18.4368C229.633 17.8282 229.753 17.2486 229.995 16.698C230.236 16.1474 230.589 15.6692 231.053 15.2635C231.526 14.8481 232.11 14.5197 232.806 14.2782C233.511 14.027 234.323 13.9014 235.24 13.9014C236.264 13.9014 237.196 14.0705 238.037 14.4086C238.877 14.7467 239.578 15.191 240.138 15.7416L239.326 17.0313Z" fill="white"/>
<path d="M72.302 53.5879V39.4189H67.1887V38.0869H78.8977V39.4189H73.7737V53.5879H72.302ZM79.2887 53.5879V42.416H80.7067V44.4248H80.7497C81.1471 43.0605 82.1354 42.2119 83.4889 42.2119C83.8649 42.2119 84.1979 42.2871 84.3698 42.3408V43.7266C84.1872 43.6514 83.7897 43.5762 83.3063 43.5762C81.7165 43.5762 80.7067 44.7793 80.7067 46.6699V53.5879H79.2887ZM89.9708 53.792C87.7686 53.792 86.2647 52.4707 86.2647 50.4941V50.4727C86.2647 48.5713 87.7042 47.4219 90.2715 47.25L93.752 47.0352V46.0684C93.752 44.457 92.7315 43.4795 90.9913 43.4795C89.3692 43.4795 88.3057 44.2637 88.0694 45.5312L88.0479 45.6387H86.6729L86.6836 45.5098C86.8985 43.5869 88.4883 42.2119 91.0127 42.2119C93.5694 42.2119 95.17 43.6514 95.17 45.9395V53.5879H93.752V51.5469H93.709C93.0967 52.8789 91.625 53.792 89.9708 53.792ZM87.7149 50.4941C87.7149 51.7188 88.7461 52.5459 90.2608 52.5459C92.2159 52.5459 93.752 51.1709 93.752 49.3877V48.1523L90.4434 48.3779C88.6924 48.4854 87.7149 49.248 87.7149 50.4727V50.4941ZM98.6547 53.5879V42.416H100.073V44.3174H100.116C100.674 43.1143 101.931 42.2227 103.736 42.2227C106.206 42.2227 107.667 43.8125 107.667 46.4336V53.5879H106.249V46.6699C106.249 44.5967 105.218 43.4902 103.317 43.4902C101.373 43.4902 100.073 44.8867 100.073 46.9707V53.5879H98.6547ZM114.998 53.792C112.463 53.792 110.841 52.4385 110.626 50.4619L110.615 50.3652H112.033L112.055 50.4619C112.28 51.751 113.322 52.5889 115.009 52.5889C116.695 52.5889 117.769 51.8154 117.769 50.6445V50.6338C117.769 49.667 117.232 49.1406 115.739 48.7861L114.053 48.3779C111.947 47.873 110.937 46.9492 110.937 45.4023V45.3916C110.937 43.5332 112.581 42.2119 114.912 42.2119C117.297 42.2119 118.822 43.5977 119.005 45.5205L119.015 45.6387H117.651L117.64 45.5635C117.458 44.2637 116.47 43.415 114.912 43.415C113.397 43.415 112.388 44.1992 112.388 45.3379V45.3486C112.388 46.2402 112.989 46.8096 114.461 47.1641L116.147 47.5615C118.371 48.0986 119.22 48.9688 119.22 50.5371V50.5479C119.22 52.4492 117.447 53.792 114.998 53.792ZM122.812 53.5879V43.6084H121.254V42.416H122.812V40.8369C122.812 38.8174 123.789 37.8828 125.658 37.8828C126.056 37.8828 126.453 37.9258 126.7 37.9688V39.1396C126.464 39.0967 126.185 39.0752 125.895 39.0752C124.81 39.0752 124.219 39.623 124.219 40.8584V42.416H126.625V43.6084H124.23V53.5879H122.812ZM133.107 53.792C130.056 53.7812 128.015 51.5469 128.015 48.002V47.9805C128.015 44.4355 130.067 42.2119 133.107 42.2119C136.136 42.2119 138.199 44.4248 138.199 47.9805V48.002C138.199 51.5576 136.147 53.792 133.107 53.792ZM133.118 52.5244C135.298 52.5244 136.749 50.8271 136.749 48.002V47.9805C136.749 45.1553 135.288 43.4795 133.107 43.4795C130.926 43.4795 129.476 45.166 129.476 47.9805V48.002C129.476 50.8379 130.916 52.5137 133.118 52.5244ZM141.189 53.5879V42.416H142.607V44.4248H142.65C143.048 43.0605 144.036 42.2119 145.39 42.2119C145.766 42.2119 146.099 42.2871 146.271 42.3408V43.7266C146.088 43.6514 145.69 43.5762 145.207 43.5762C143.617 43.5762 142.607 44.7793 142.607 46.6699V53.5879H141.189ZM148.907 53.5879V42.416H150.325V44.3389H150.368C150.83 43.1035 151.968 42.2227 153.537 42.2227C155.169 42.2227 156.351 43.168 156.77 44.5859H156.802C157.339 43.2002 158.618 42.2227 160.315 42.2227C162.506 42.2227 163.935 43.6836 163.935 45.9502V53.5879H162.517V46.2725C162.517 44.5322 161.55 43.4902 159.928 43.4902C158.274 43.4902 157.135 44.7578 157.135 46.5518V53.5879H155.706V46.1436C155.706 44.543 154.675 43.4902 153.15 43.4902C151.506 43.4902 150.325 44.8115 150.325 46.7236V53.5879H148.907ZM168.258 40.3965C167.731 40.3965 167.312 39.9775 167.312 39.4512C167.312 38.9248 167.731 38.5166 168.258 38.5166C168.773 38.5166 169.192 38.9248 169.192 39.4512C169.192 39.9775 168.773 40.3965 168.258 40.3965ZM167.538 53.5879V42.416H168.967V53.5879H167.538ZM172.634 53.5879V42.416H174.052V44.3174H174.095C174.654 43.1143 175.91 42.2227 177.715 42.2227C180.186 42.2227 181.647 43.8125 181.647 46.4336V53.5879H180.229V46.6699C180.229 44.5967 179.198 43.4902 177.296 43.4902C175.352 43.4902 174.052 44.8867 174.052 46.9707V53.5879H172.634ZM189.783 57.5518C187.13 57.5518 185.497 56.2842 185.099 54.7051L185.078 54.6191H186.506L186.549 54.7158C186.925 55.6182 188.064 56.2842 189.772 56.2842C191.91 56.2842 193.156 55.0811 193.156 53.1797V51.2139H193.124C192.533 52.6748 191.115 53.7168 189.321 53.7168C186.506 53.7168 184.584 51.4395 184.584 47.959V47.9482C184.584 44.4893 186.528 42.2119 189.342 42.2119C191.126 42.2119 192.511 43.2969 193.124 44.7793H193.156V42.416H194.585V53.2979C194.585 55.876 192.737 57.5518 189.783 57.5518ZM189.6 52.4492C191.706 52.4492 193.156 50.6445 193.156 47.959V47.9482C193.156 45.2734 191.695 43.4795 189.6 43.4795C187.441 43.4795 186.045 45.252 186.045 47.9482V47.959C186.045 50.6875 187.441 52.4492 189.6 52.4492ZM210.341 53.835C206.087 53.835 203.337 50.6875 203.337 45.832V45.8213C203.337 40.9551 206.066 37.8398 210.341 37.8398C213.553 37.8398 215.927 39.8164 216.507 42.7168L216.529 42.8242H215.057L214.993 42.6309C214.402 40.5361 212.758 39.2041 210.341 39.2041C206.99 39.2041 204.841 41.793 204.841 45.8213V45.832C204.841 49.8496 207.011 52.4707 210.341 52.4707C212.748 52.4707 214.38 51.1494 215.025 48.9473L215.057 48.8506H216.529L216.507 48.958C215.927 51.8799 213.564 53.835 210.341 53.835ZM222.882 53.792C220.68 53.792 219.176 52.4707 219.176 50.4941V50.4727C219.176 48.5713 220.615 47.4219 223.182 47.25L226.663 47.0352V46.0684C226.663 44.457 225.642 43.4795 223.902 43.4795C222.28 43.4795 221.217 44.2637 220.98 45.5312L220.959 45.6387H219.584L219.595 45.5098C219.809 43.5869 221.399 42.2119 223.924 42.2119C226.48 42.2119 228.081 43.6514 228.081 45.9395V53.5879H226.663V51.5469H226.62C226.008 52.8789 224.536 53.792 222.882 53.792ZM220.626 50.4941C220.626 51.7188 221.657 52.5459 223.172 52.5459C225.127 52.5459 226.663 51.1709 226.663 49.3877V48.1523L223.354 48.3779C221.603 48.4854 220.626 49.248 220.626 50.4727V50.4941ZM231.566 53.5879V42.416H232.984V44.4248H233.027C233.424 43.0605 234.412 42.2119 235.766 42.2119C236.142 42.2119 236.475 42.2871 236.647 42.3408V43.7266C236.464 43.6514 236.067 43.5762 235.583 43.5762C233.993 43.5762 232.984 44.7793 232.984 46.6699V53.5879H231.566ZM243.161 53.792C240.024 53.792 238.08 51.5684 238.08 48.0342V48.0234C238.08 44.5215 240.056 42.2119 243.043 42.2119C246.029 42.2119 247.909 44.4463 247.909 47.7871V48.3457H239.519C239.562 51.0098 240.991 52.5244 243.193 52.5244C244.837 52.5244 245.975 51.6973 246.34 50.4834L246.362 50.3867H247.769L247.748 50.4941C247.361 52.4062 245.578 53.792 243.161 53.792ZM243.032 43.4795C241.131 43.4795 239.713 44.8438 239.541 47.2178H246.48C246.319 44.7793 244.944 43.4795 243.032 43.4795ZM255.433 53.792C252.296 53.792 250.352 51.5684 250.352 48.0342V48.0234C250.352 44.5215 252.328 42.2119 255.314 42.2119C258.301 42.2119 260.181 44.4463 260.181 47.7871V48.3457H251.791C251.834 51.0098 253.263 52.5244 255.465 52.5244C257.108 52.5244 258.247 51.6973 258.612 50.4834L258.634 50.3867H260.041L260.02 50.4941C259.633 52.4062 257.85 53.792 255.433 53.792ZM255.304 43.4795C253.402 43.4795 251.984 44.8438 251.813 47.2178H258.752C258.591 44.7793 257.216 43.4795 255.304 43.4795ZM263.182 53.5879V42.416H264.6V44.4248H264.643C265.04 43.0605 266.029 42.2119 267.382 42.2119C267.758 42.2119 268.091 42.2871 268.263 42.3408V43.7266C268.081 43.6514 267.683 43.5762 267.2 43.5762C265.61 43.5762 264.6 44.7793 264.6 46.6699V53.5879H263.182ZM274.67 53.792C272.135 53.792 270.513 52.4385 270.298 50.4619L270.287 50.3652H271.705L271.726 50.4619C271.952 51.751 272.994 52.5889 274.681 52.5889C276.367 52.5889 277.441 51.8154 277.441 50.6445V50.6338C277.441 49.667 276.904 49.1406 275.411 48.7861L273.724 48.3779C271.619 47.873 270.609 46.9492 270.609 45.4023V45.3916C270.609 43.5332 272.253 42.2119 274.584 42.2119C276.969 42.2119 278.494 43.5977 278.677 45.5205L278.687 45.6387H277.323L277.312 45.5635C277.13 44.2637 276.141 43.415 274.584 43.415C273.069 43.415 272.059 44.1992 272.059 45.3379V45.3486C272.059 46.2402 272.661 46.8096 274.133 47.1641L275.819 47.5615C278.043 48.0986 278.891 48.9688 278.891 50.5371V50.5479C278.891 52.4492 277.119 53.792 274.67 53.792Z" fill="white" fill-opacity="0.75"/>
</svg>
